<?xml version="1.0" encoding="UTF-8" standalone="no"?>
<svg
   xmlns:dc="http://purl.org/dc/elements/1.1/"
   xmlns:cc="http://creativecommons.org/ns#"
   xmlns:rdf="http://www.w3.org/1999/02/22-rdf-syntax-ns#"
   xmlns:svg="http://www.w3.org/2000/svg"
   xmlns="http://www.w3.org/2000/svg"
   xmlns:sodipodi="http://sodipodi.sourceforge.net/DTD/sodipodi-0.dtd"
   xmlns:inkscape="http://www.inkscape.org/namespaces/inkscape"
   xml:space="preserve"
   width="640"
   height="300"
   viewBox="-10 0 620 300"
   zoomAndPan="disable"
   id="svg2"
   version="1.1"
   inkscape:version="0.48.5 r10040"
   sodipodi:docname="flux-whole-logo.svg"
   inkscape:export-filename="/home/grondo/flux-2x.png"
   inkscape:export-xdpi="90"
   inkscape:export-ydpi="90"><metadata
     id="metadata41"><rdf:RDF><cc:Work
         rdf:about=""><dc:format>image/svg+xml</dc:format><dc:type
           rdf:resource="http://purl.org/dc/dcmitype/StillImage" /><dc:title></dc:title></cc:Work></rdf:RDF></metadata><sodipodi:namedview
     pagecolor="#ffffff"
     bordercolor="#666666"
     borderopacity="1"
     objecttolerance="10"
     gridtolerance="10"
     guidetolerance="10"
     inkscape:pageopacity="0"
     inkscape:pageshadow="2"
     inkscape:window-width="1735"
     inkscape:window-height="882"
     id="namedview39"
     showgrid="false"
     inkscape:zoom="1.4142136"
     inkscape:cx="367.86429"
     inkscape:cy="157.92376"
     inkscape:window-x="317"
     inkscape:window-y="184"
     inkscape:window-maximized="0"
     inkscape:current-layer="svg2"
     inkscape:snap-bbox="true"
     inkscape:bbox-paths="true"
     inkscape:bbox-nodes="true"
     inkscape:snap-grids="true" /><defs
     id="defs4"><marker
       id="arrow"
       viewBox="0 0 10 10"
       refX="10"
       refY="5"
       markerUnits="strokeWidth"
       orient="auto"
       markerWidth="8"
       markerHeight="6"><polyline
         points="0,0 10,5 0,10 3,5"
         style="fill:#000000;stroke-width:0px"
         id="polyline7" /></marker><style
       type="text/css"
       id="style9">
    path{
      stroke: black;
      fill: none;
      stroke-width: 2px;
    }
</style></defs><path
     style="fill:#bf616a;stroke:#000000;stroke-width:1.41421354000000021px;stroke-opacity:1;fill-opacity:1"
     d="m 166.1875,4.4375 c -4.36005,3.6687868 -3.69466,10.887112 -5.69977,15.941699 -2.42705,11.720526 -5.4621,23.491185 -12.42523,33.308301 -4.92615,8.750528 -9.20993,17.867201 -12.875,27.21875 C 126.13425,57.932746 105.17264,39.906728 80.40625,36.5625 51.302092,31.611005 21.975986,47.626436 6.0625,71.375 -5.0012115,86.456962 -9.6352367,104.74867 -16.125,121.96875 c -0.861817,3.39618 -6.547112,7.66351 -2.90625,10.625 4.262716,-0.46488 0.905952,5.53051 1.796684,8.12156 -1.886179,25.03435 3.303633,51.57148 20.3705643,70.56078 14.7594677,16.44228 37.2520657,25.96519 59.5482447,23.67231 14.32422,-0.57314 27.971318,-7.56717 38.847007,-16.47965 -5.503977,19.18967 -7.408357,41.50741 -23.46875,55.25 -4.85773,3.79561 -12.533129,6.59309 -18.15625,3.78125 0.170037,-4.70946 4.127335,-9.42953 0.96875,-14.09375 -6.696639,-12.2211 -28.658036,-9.78778 -31.46875,4.25 -1.316497,10.98344 10.297206,17.7183 19.40625,20.09375 19.174365,5.26893 40.430563,-3.91258 53.71875,-16.125 -1.38657,2.47838 -0.89975,10.19816 -3.40625,10 -4.49992,-1.87669 -3.784293,4.85481 -3.0625,7.28125 1.188029,3.4242 -0.56806,9.92988 3.6875,10.84375 4.31395,-2.92524 6.62747,-8.52044 8.9375,-13.09375 0.52735,-3.45498 -5.15477,-2.1468 -1.84088,-6.72188 1.70925,-10.3925 5.00987,-20.52898 11.37213,-29.02812 5.21846,-8.73375 9.25172,-18.05947 12.75,-27.59375 9.78731,24.985 33.71338,43.81733 60.90625,45.09375 30.22035,2.53758 58.2478,-16.76188 72.68854,-42.27168 4.77326,-7.84161 8.19187,-16.44103 11.46771,-24.97832 1.31001,3.33288 6.38697,2.536 4.9375,-1.3125 -2.61524,-15.31117 3.62613,-30.33834 2.71875,-45.75 1.38935,-32.22391 -15.29356,-66.28878 -45.69832,-79.367476 -23.47221,-10.582384 -52.38617,-6.28437 -72.02043,10.148726 5.47273,-18.721218 9.46943,-39.908002 24.20355,-53.86578 6.01892,-5.192792 15.02068,-7.633328 22.54645,-5.63422 -1.17081,5.332944 -4.57887,11.613714 -0.28125,16.5625 5.20123,7.648124 16.59687,7.543312 24.09375,3.6875 7.15711,-3.284797 9.77269,-12.633 5.1875,-19.0625 -8.90844,-12.706631 -26.44027,-12.924076 -40.4653,-11.854455 -13.97063,1.678848 -26.87826,8.78596 -37.44095,17.885705 1.65503,-8.910708 4.3188,-17.685296 5.3125,-26.6875 -0.49636,-1.1815828 -1.69033,-1.8466374 -2.9375,-1.46875 z M 69.84375,41.96875 c 28.331464,-1.100503 56.18717,20.324354 61.71875,48.28125 0.005,3.071598 -2.30913,-2.438353 -2.6875,-2.9375 C 118.40142,66.497405 94.434431,53.869806 71.253342,57.144193 46.834348,59.742873 27.622352,79.27525 18.21875,100.84375 c -5.57076,12.53055 -7.651398,26.39348 -16.0747373,37.47873 1.3241618,1.01815 8.7903083,-0.8471 5.3115867,7.45778 -1.5252827,25.84097 9.2222316,54.16857 33.0444006,66.62599 20.098406,10.87317 47.259903,8.25485 63.96875,-7.53125 -2.06643,8.06198 -10.902885,11.91175 -17.1875,16.375 -14.588607,8.73229 -32.699099,9.65323 -49,5.78125 -29.8318657,-8.68865 -49.918311,-39.1404 -49.324404,-69.68743 -0.06582,-7.47813 -0.110569,-14.9664 0.230654,-22.43757 5.383375,-0.31712 2.4762789,-8.03865 3.2916661,-11.5937 C -7.8297458,109.05752 -0.35418063,96.15117 5.5026273,83.586818 17.679295,59.956014 42.4783,41.183442 69.84375,41.96875 z M 76.5,62.9375 c 18.831264,-1.677042 37.00311,9.147158 46.125,25.3125 2.37981,2.579241 1.71785,3.887045 -1.625,3.0625 -7.01392,-3.693305 -12.8412,-10.364289 -20.90625,-12.15625 -12.597739,-3.585965 -26.616125,-2.050542 -37.40625,5.625 -15.665043,10.020418 -23.216813,27.88212 -28.521338,44.93097 -0.952707,4.64971 -5.843643,8.42292 -5.259912,13.22528 1.37002,2.50193 5.496918,-0.67205 3.75,3.90625 -1.11019,18.8506 5.867298,39.13112 22.4375,49.4375 15.87126,10.25227 39.131333,8.72789 52.46875,-5.09375 -3.40967,7.79381 -11.391642,12.93748 -18.581927,17.00971 C 70.521886,217.20897 46.990679,213.52445 32.125,199.3125 16.060999,184.48735 11.817972,161.61878 13.75,140.65625 c 4.251788,-0.0236 2.368069,-6.67671 2.875,-9.625 C 16.035918,116.76528 23.039019,103.50723 29.96875,91.375 39.830634,75.708776 57.172479,62.432114 76.5,62.9375 z m 133.875,12.375 c 28.65057,-1.2606 54.85393,20.530646 62.96875,47.4375 6.27097,20.7822 6.05615,43.82487 -0.0625,64.59375 -1.32592,4.35037 -6.00498,8.0472 -5.71875,12.1875 3.64413,0.49768 1.71682,2.84667 0.75392,5.32438 -9.07718,24.10686 -26.67964,46.72663 -51.92354,54.76646 -11.83757,3.06207 -25.05151,4.06669 -36.89288,0.84666 -15.47688,-4.61824 -29.33363,-14.1959 -37.375,-28.3125 -3.32519,-6.18919 -8.7438,-13.19744 -7,-20.5 8.60984,23.6567 34.69693,39.08141 59.6875,35.5625 25.75372,-2.59537 45.69686,-23.86339 54.69772,-47.06863 1.01098,-3.39557 1.75098,-6.07083 4.52103,-2.80637 4.99966,1.03194 2.08398,-4.93899 2.09375,-7.59375 -0.63472,-13.33793 3.96641,-26.32059 2.31098,-39.74946 0.68507,-26.70057 -16.09791,-53.504927 -41.9027,-61.978941 -12.92323,-4.313886 -27.28421,-3.043997 -40.03328,1.259651 -2.35864,0.451384 -5.81806,0.932922 -7.65625,0.59375 11.82519,-9.232057 26.18376,-15.729315 41.53125,-14.5625 z M 86.125,83.5 c 9.337302,-0.218138 18.91221,2.495628 25.90625,8.75 -5.31952,1.24287 -12.630688,-1.307283 -16.75,3.125 -0.797309,3.406962 -4.06875,8.16975 -1.0625,10.9375 8.52615,1.01556 17.4331,-0.98501 26.09283,-0.50193 3.0196,0.33659 2.74003,5.72402 3.46967,8.59568 -2.24943,19.66412 -7.83767,38.81112 -12.3125,58.1875 -2.91893,15.99904 -20.056878,25.80461 -35.4375,24.0625 -21.418896,0.13719 -37.236038,-21.31066 -37.115995,-41.62357 -1.770796,-8.72047 2.082445,-4.85156 4.131453,-2.98055 C 39.64903,140.19166 39.639734,127.22299 45.34375,116.0625 51.725469,99.502933 66.107803,83.559175 85.03125,83.53125 85.397498,83.630755 85.760138,83.492041 86.125,83.5 z M 206.5,91.78125 c 27.23556,3.241562 46.83341,30.84328 45.875,57.46875 0.2217,14.1733 0.30457,29.66998 -8.46875,41.5 -1.15074,1.52932 -0.794,4.17327 1.4375,4.25 -7.57773,21.23474 -24.37375,41.63441 -47.40625,45.75 -16.68888,3.45488 -34.40902,-1.61392 -46.375,-13.875 -5.80673,-6.45606 -10.6117,-14.55721 -12.625,-22.90625 -0.38,-4.08266 0.1249,-4.6297 1.59375,-0.625 7.68902,15.85527 25.69,25.5862 43.3125,23.40625 20.36001,-1.83865 35.87627,-19.15263 43.15625,-37.1875 3.89401,4.95231 8.46041,11.33845 5.47976,0.88725 -3.2948,-15.64954 3.69142,-31.30396 0.58274,-47.07475 -1.95458,-18.35707 -16.31548,-35.67705 -33.1875,-40.4375 5.18293,-0.31213 5.64042,-7.236565 5.65625,-11.28125 l 0.96875,0.125 z m -34.84375,12.6875 c -4.1317,1.45259 -9.22682,5.83217 -11.8125,7.25 1.26497,-4.30184 4.39994,-8.27382 9.40625,-7.375 0.32649,0.12302 4.77689,-0.61602 2.40625,0.125 z m 14.90625,3.09375 c 15.60989,-1.06614 30.12179,8.83484 36.46875,22.84375 6.50426,15.14986 6.49528,33.26466 0.15625,48.46875 -0.66004,3.35108 -7.0135,7.80265 -2.65625,10.5625 -6.65053,16.2803 -21.35328,31.79295 -40.0625,31.34375 -19.56888,2.09386 -38.9431,-15.31656 -37.9375,-35 3.99255,-20.9891 8.6596,-42.12263 15.34375,-62.40625 5.94579,-9.76692 17.17695,-16.20228 28.6875,-15.8125 z"
     id="path2998"
     inkscape:connector-curvature="0" /><path
     style="fill:#dfe1e8;stroke:#000000;stroke-width:2.11399999999999988;stroke-opacity:1;stroke-miterlimit:4;stroke-dasharray:none;stroke-linejoin:round;fill-opacity:1"
     d="m 207.21875,15.71875 c -18.61021,-0.881769 -34.07437,11.451819 -48.3125,21.75 -3.86097,2.012392 -3.86709,7.765685 -6.58364,11.013621 -6.75788,11.494319 -11.81187,23.844393 -17.88511,35.642629 -4.03907,0.665078 -0.91682,6.035694 -2.5,7.75 -11.20705,1.070128 -22.87175,0.44898 -33.84375,3.0625 -3.5111,2.198261 -3.21941,7.04353 -4.53125,10.5 11.46305,0.0391 23.23165,-0.58237 34.53125,0.0937 -0.92181,3.85749 -4.10963,6.85951 -3.59375,11.25 -3.47384,21.42499 -8.17659,43.04025 -14.78125,63.6875 -1.37473,1.97559 -2.07008,5.01567 0.0625,6.4375 -0.1964,4.37431 -3.74896,7.792 -4.625,11.8125 2.66723,3.26034 -0.43576,8.17637 -1.96875,11.34375 -1.85371,1.34476 -2.69104,4.88415 0.125,5.59375 -4.78096,16.64377 -6.99279,34.63292 -16.28125,49.40625 -5.59279,8.94001 -17.021787,17.79752 -27.90625,13.21875 -0.878533,-4.95928 4.15023,-10.73254 -0.125,-15.34375 -7.018859,-10.04903 -26.762429,-7.20135 -28.375,5.71875 -0.517627,10.15397 10.564514,15.34026 18.6875,17.9375 19.133362,4.64 38.93387,-3.47594 52.85714,-16.52094 2.02672,-2.41811 4.3356,-3.01523 6.76786,-3.38531 4.38368,-12.15736 12.95281,-22.73252 17.52373,-35.04207 2.41996,-3.90518 2.44852,-10.16461 7.00752,-11.98918 1.13031,-4.2926 -0.36882,-9.36815 2.59375,-13.21875 4.34929,-3.57786 -0.89526,-11.79643 4.53125,-14.40625 1.71743,-6.35448 1.68686,-13.36382 3.57059,-19.83161 3.99888,-16.60778 7.0531,-33.842 13.21066,-49.79339 1.74283,-2.14509 2.45476,-5.25087 0.5,-7.125 1.03933,-5.08967 3.35326,-12.1534 9.9375,-11.71875 11.38053,-1.39637 23.08374,-0.42052 34.3125,-2.75 2.26237,-2.792961 3.92775,-10.173709 -1.46875,-10.15625 -6.47099,-0.252398 -12.88032,-1.57047 -19.25,-1.40625 -4.99289,1.063333 -11.60449,2.249224 -16.03125,1.21875 -1.11473,-1.849683 -0.96134,-3.922348 -0.125,-6.34375 4.80713,-16.975018 8.54565,-35.256811 19.90625,-49.28125 6.42247,-8.272837 18.34144,-13.298013 28.5,-10.03125 -0.77831,5.999605 -4.55414,14.12186 1.875,18.59375 6.31201,5.406699 16.56731,3.891009 23,-0.59375 7.16472,-5.332243 4.09044,-16.276417 -2.65625,-20.5 -8.09098,-6.485243 -18.69026,-6.857837 -28.65625,-6.59375 z"
     id="path3006"
     inkscape:connector-curvature="0" /><path
     style="fill:#dfe1e8;stroke:#000000;stroke-width:1.41421354000000021px;stroke-opacity:1;fill-opacity:1"
     d="m 228.21875,178.375 c -1.44248,2.92625 -1.0972,7.20515 0.84375,10.03125 3.84917,-2.33835 3.89313,-8.85354 0.5625,-11.46875 -0.46875,0.47917 -0.9375,0.95833 -1.40625,1.4375 z"
     id="path3018"
     inkscape:connector-curvature="0" /><path
     style="fill:#dfe1e8;stroke:#000000;stroke-width:2.91400000000000015;stroke-opacity:1;stroke-miterlimit:4;stroke-dasharray:none;stroke-linejoin:round;fill-opacity:1"
     d="m 265.69941,49.632601 c -19.45424,2.322355 -38.87197,5.129894 -58.31043,7.301861 -4.65999,0.814146 -3.05294,8.186582 1.3755,7.817973 7.27474,1.080932 16.24299,-0.178546 22.07439,4.961899 -9.67195,33.030956 -21.59756,65.471296 -32.24771,98.235966 -7.71539,24.45342 -17.16093,48.47998 -23.80231,73.20106 -1.50353,9.27999 5.47052,18.21921 14.79951,19.21463 18.93382,2.74596 37.2341,-7.3417 49.92526,-20.61621 5.97084,-5.87173 11.80577,-11.83642 17.13467,-18.30771 -4.07524,-2.2978 -8.4642,-6.66932 -11.69984,-0.75388 -9.53075,7.68378 -17.51772,18.0317 -28.63875,23.18907 -3.26553,1.1027 -9.76323,0.97594 -8.17121,-4.15718 5.48204,-21.33584 14.05951,-42.03409 20.55401,-63.18439 13.7263,-40.55429 27.88998,-81.06882 40.79971,-121.888126 1.36806,-3.095665 -0.2803,-5.688407 -3.7928,-5.014963 z"
     id="path3032"
     inkscape:connector-curvature="0" /><path
     style="fill:#dfe1e8;stroke:#000000;stroke-width:2.91400000000000015;stroke-opacity:1;stroke-miterlimit:4;stroke-dasharray:none;stroke-linejoin:round;fill-opacity:1"
     d="m 335.72363,123.03371 c -18.58762,2.7005 -37.3454,4.91395 -55.84269,7.56157 -3.95197,2.05104 -1.74921,8.55897 2.84584,7.41751 5.78371,0.98297 13.92574,-0.97018 17.76512,4.13243 0.53962,9.95717 -5.09684,19.3771 -7.48633,29.01498 -7.18894,23.44321 -17.04702,46.30895 -20.96298,70.55742 -1.82891,9.49215 5.73108,18.62279 15.23141,19.31401 20.54463,2.9211 40.52835,-7.24118 54.7718,-21.31589 14.4152,-13.51607 26.91322,-29.0007 39.42492,-44.37646 -5.07218,16.6966 -12.3006,32.97917 -13.97949,50.35163 -0.50524,9.68479 9.44117,16.16201 18.37674,15.47868 12.68871,1.23588 25.00704,-3.74602 33.98809,-12.49522 7.7525,-7.40099 16.12558,-14.49738 22.30864,-23.09603 0.005,-3.30876 -4.90549,-3.72525 -7.04019,-5.684 -8.86674,8.68122 -17.39086,18.74073 -28.90548,23.57394 -2.60903,1.08008 -6.73982,-0.068 -4.82957,-3.61278 11.17516,-37.47601 25.32954,-74.2615 37.09569,-111.6049 -1.53186,-4.1782 -8.24771,-1.5827 -11.77108,-2.60883 -6.43217,0.58268 -13.82005,-1.5833 -19.75563,1.39102 -11.69327,22.665 -21.49195,46.88649 -37.91873,66.63256 -14.25126,17.02353 -28.04737,35.63569 -48.119,46.02976 -4.13156,1.54697 -9.6189,3.72799 -13.72467,1.47726 -5.00426,-4.1433 0.91422,-10.74133 1.19578,-15.6398 10.11082,-33.61499 21.89637,-66.78941 31.57391,-100.48216 0.1349,-2.23758 -2.64691,-2.28485 -4.2421,-2.0167 z"
     id="path3034"
     inkscape:connector-curvature="0" /><path
     style="fill:#dfe1e8;stroke:#000000;stroke-width:2.91400000000000015;stroke-opacity:1;stroke-miterlimit:4;stroke-dasharray:none;stroke-linejoin:round;fill-opacity:1"
     d="m 520.56681,123.5423 c -16.44581,1.74197 -32.88279,5.31391 -48.72684,9.90209 -2.75322,3.59565 2.73602,9.66956 7.03576,6.80899 8.00646,-0.56727 17.1001,-4.41659 24.72065,-0.43398 6.49021,7.24614 6.92261,17.85967 10.60114,26.63708 2.52834,9.01703 6.24467,18.38925 7.81184,27.27954 -13.07276,14.79064 -25.7747,30.12635 -40.48347,43.37229 -3.83436,3.08607 -8.66321,6.36917 -13.60718,3.38398 -8.83579,-2.56329 -19.69593,-7.98146 -27.93396,-0.95367 -6.21574,4.83014 -5.13105,14.89781 1.33172,18.94288 12.55816,7.67784 29.12002,3.29512 39.67968,-5.87516 16.66501,-13.0591 30.71306,-28.88541 45.6109,-43.97711 6.19255,15.58886 8.8348,33.02328 17.78305,47.22659 5.94693,8.49684 17.85129,7.5777 26.91369,6.10595 14.52688,-4.53615 24.30065,-17.51049 34.36089,-28.11502 2.59359,-2.29332 6.22559,-7.55558 1.16139,-9.2455 -5.70425,-3.06541 -9.67414,4.54085 -13.63218,7.27214 -5.20527,3.52152 -9.13988,11.22162 -16.03537,11.42377 -9.00412,-1.12056 -9.95297,-12.11993 -12.83028,-18.8156 -4.84493,-14.95258 -10.10001,-30.0431 -12.97944,-45.47396 10.3152,-12.11303 19.178,-26.53134 33.35326,-34.11902 9.60276,-1.63423 18.47658,7.10808 28.29789,3.76763 9.30156,-1.43646 12.97183,-15.30347 4.61151,-20.38826 -8.75413,-6.9012 -21.46577,-4.00982 -30.72047,0.37912 -12.69297,6.88442 -22.52455,18.11428 -32.57991,28.18452 -2.22827,0.94603 -6.78244,10.85635 -7.54292,5.49958 -3.42029,-11.67234 -5.48822,-24.69081 -13.34391,-34.30074 -3.42367,-3.18879 -8.18096,-4.84401 -12.85744,-4.48813 z"
     id="path3036"
     inkscape:connector-curvature="0" /><path
     style="fill:#dfe1e8;stroke:none;fill-opacity:1"
     d="m 72.859348,285.85289 c -2.138998,-0.37637 -6.572924,-2.03078 -9.85317,-3.67647 -7.517598,-3.77158 -10.049635,-6.68702 -10.497442,-12.08697 -0.29725,-3.58445 -0.164656,-3.97246 2.28355,-6.68233 4.669447,-5.16852 12.115527,-6.35819 18.716882,-2.99043 3.972326,2.02652 5.9651,5.08656 5.452695,8.37297 -0.224367,1.43902 -0.617582,4.42246 -0.87381,6.62985 l -0.465869,4.01344 3.098659,0.83577 c 10.761355,2.90256 23.228677,-5.25967 30.512817,-19.97642 5.23327,-10.57322 14.26794,-43.30002 12.663,-45.86994 -0.64206,-1.0281 -0.38427,-2.06153 1.32462,-5.31018 1.70349,-3.23839 2.09838,-4.8146 2.00297,-7.99477 -0.0924,-3.07968 0.31429,-4.81587 1.82768,-7.80243 1.57285,-3.10387 1.86609,-4.42831 1.52745,-6.89895 -0.31553,-2.30205 0.0936,-4.63932 1.65552,-9.45818 4.27835,-13.19947 10.63801,-40.80926 12.77433,-55.45842 0.45373,-3.11127 1.46088,-7.40694 2.23812,-9.54594 0.77725,-2.139 1.57672,-4.76413 1.77661,-5.83363 l 0.36343,-1.94454 -17.09847,0 -17.09847,0 0.48591,-1.59099 c 1.41362,-4.628561 2.36837,-6.058946 4.31679,-6.4673 4.66916,-0.978579 12.54307,-1.785812 21.92277,-2.247511 5.50724,-0.27109 10.42812,-0.749342 10.93528,-1.062781 0.544,-0.336208 0.87607,-1.72457 0.80982,-3.385783 -0.0729,-1.828514 0.28413,-3.144646 1.01825,-3.75348 0.62178,-0.515676 4.41385,-7.619752 8.42681,-15.786835 4.01295,-8.167084 9.13781,-18.342971 11.38855,-22.613084 l 4.09227,-7.763843 9.18484,-6.528474 c 11.06497,-7.864845 19.85744,-12.416326 27.90288,-14.444102 5.21882,-1.315354 7.35845,-1.464788 16.61701,-1.160552 11.81042,0.388089 15.21265,1.281012 21.9661,5.765051 4.3012,2.855836 6.69202,7.034429 6.69202,11.696105 0,2.576242 -0.40892,3.450834 -2.67113,5.713052 -5.78404,5.78403 -16.66238,6.463712 -22.10341,1.381026 -2.75702,-2.575438 -3.15598,-4.826182 -2.08073,-11.738257 0.50669,-3.257139 0.71038,-6.132944 0.45265,-6.390677 -0.97492,-0.974922 -8.64335,-1.533915 -12.08607,-0.881018 -9.52453,1.806291 -16.96458,7.617204 -23.29359,18.193024 -4.48223,7.489828 -7.40833,14.971644 -11.72509,29.980143 -4.19602,14.588653 -4.72267,17.49238 -3.56496,19.655575 0.84234,1.573928 1.00753,1.594646 8.03026,1.007331 8.35831,-0.699011 22.74721,-0.565658 27.32277,0.253222 3.13267,0.560658 3.18064,0.610996 3.09593,3.248632 -0.0473,1.473533 -0.52462,3.112733 -1.06066,3.642675 -0.98455,0.97336 -10.36319,1.942621 -27.62209,2.854671 -5.51883,0.29164 -9.0398,0.82536 -10.60281,1.60719 -3.46754,1.73449 -5.79056,6.44868 -5.9754,12.12612 -0.10511,3.22853 -0.91139,6.69631 -2.70322,11.62658 -3.8351,10.55237 -12.13075,44.85302 -13.82672,57.17038 -0.47054,3.41739 -1.29704,6.65496 -1.83668,7.1946 -1.56874,1.56874 -2.40085,4.44476 -2.40085,8.29807 0,2.41795 -0.48812,4.3726 -1.50133,6.01201 -0.90357,1.462 -1.71443,4.37062 -2.03658,7.3053 -0.4043,3.68306 -0.97508,5.39881 -2.33283,7.01241 -0.98867,1.17496 -2.43227,3.81179 -3.20801,5.85963 -2.36939,6.25486 -6.06055,13.93328 -10.79865,22.46358 -2.48478,4.4735 -5.45602,10.13131 -6.60275,12.57291 -1.47715,3.14514 -2.56773,4.56045 -3.74097,4.85491 -0.91081,0.2286 -4.00296,2.36664 -6.87143,4.7512 -8.51571,7.07911 -17.2132,11.74483 -26.596275,14.26744 -5.03061,1.35247 -14.859374,1.83989 -19.749777,0.97942 l 0,0 z"
     id="path3905"
     inkscape:connector-curvature="0"
     transform="translate(-20,0)" /></svg>