<?xml version="1.0" encoding="UTF-8" standalone="no"?>
<svg
   xmlns:dc="http://purl.org/dc/elements/1.1/"
   xmlns:cc="http://creativecommons.org/ns#"
   xmlns:rdf="http://www.w3.org/1999/02/22-rdf-syntax-ns#"
   xmlns:svg="http://www.w3.org/2000/svg"
   xmlns="http://www.w3.org/2000/svg"
   xmlns:sodipodi="http://sodipodi.sourceforge.net/DTD/sodipodi-0.dtd"
   xmlns:inkscape="http://www.inkscape.org/namespaces/inkscape"
   id="svg2"
   viewBox="0 0 307.99999 308.00001"
   version="1.1"
   sodipodi:docname="flux-logo-v2-f.svg"
   inkscape:export-filename="/tmp/flux-f.png"
   inkscape:export-xdpi="200.41"
   inkscape:export-ydpi="200.41"
   width="308"
   height="308"
   inkscape:version="0.92.3 (2405546, 2018-03-11)">
  <metadata
     id="metadata13">
    <rdf:RDF>
      <cc:Work
         rdf:about="">
        <dc:format>image/svg+xml</dc:format>
        <dc:type
           rdf:resource="http://purl.org/dc/dcmitype/StillImage" />
        <dc:title>Flux-logo-3</dc:title>
      </cc:Work>
    </rdf:RDF>
  </metadata>
  <sodipodi:namedview
     pagecolor="#ffffff"
     bordercolor="#666666"
     borderopacity="1"
     objecttolerance="10"
     gridtolerance="10"
     guidetolerance="10"
     inkscape:pageopacity="0"
     inkscape:pageshadow="2"
     inkscape:window-width="1233"
     inkscape:window-height="810"
     id="namedview11"
     showgrid="false"
     inkscape:zoom="0.79573812"
     inkscape:cx="69.020834"
     inkscape:cy="147.32924"
     inkscape:window-x="2463"
     inkscape:window-y="283"
     inkscape:window-maximized="0"
     inkscape:current-layer="svg2" />
  <defs
     id="defs4">
    <style
       id="style2">.cls-1{fill:#91c2d8;}.cls-2{fill:#036291;}</style>
  </defs>
  <title
     id="title6">Flux-logo-3</title>
  <path
     id="path2998"
     class="cls-1"
     d="m 189.83,10.230061 c -3.31,0.839999 -2.28,0.809999 -5.72,15.999994 -2.42,10.7 -5.29,20.56 -10.4,30.32 -5.23,10 -10.12,20 -14.88,30.12 -9.06,-23 -30,-41 -54.78,-44.35 -29.11,-4.9 -58.43,11.1 -74.35,34.85 -11.06,15.08 -15.7,31.369965 -22.19,48.589955 -1.52,2.21 -3,4.48 -4.68,6.55 -1.86,2.24 -4.71,5.42 2.6,6.35 1.3,0.36 1.31,0.67 1.17,1.82 a 149.39,149.39 0 0 0 -0.6,15.7 119.78,119.78 0 0 0 0.67,12.7 97.7,97.7 0 0 0 5.83,24.54 76.24,76.24 0 0 0 14.28,23.65 c 14.75,16.44 37.25,26 59.54,23.67 14.33,-0.57 28,-7.57 38.85,-16.48 -5.5,19.19 -7.41,41.51 -23.47,55.25 -4.85,3.79 -12.53,6.59 -18.15,3.78 -0.77,-0.38 0.41,-5.65 0.47,-6.28 0.32,-3 0.31,-6.16 -1.09,-8.93 a 14.62,14.62 0 0 0 -6.12,-5.84 c -3.25,-1.81 -7.1,-2.88 -10.71,-2 -3.61,0.88 -6.55,3.62 -8.64,6.7 -2.66,3.92 -4.24,9 -2.45,13.42 1.58,3.87 5.41,6.34 9.26,8 20.73,8.89 41.83,-1.65 59.83,-11.94 a 1.14,1.14 0 0 1 1.69,1.17 c -0.57,4.1 -1.58,10.43 -2.5,10.14 -6.89,-1.37 -7.83,-4.33 -5.59,5.95 1.76,8.8 2.92,13 4.26,13.35 1.92,0.43 13.33,-14.3 13.33,-14.3 2.8,-3.94 -1.29,-2.86 -5.17,-3.66 -0.67,-0.14 0,-1.76 0.26,-3.36 0.81,-4.8 3.5,-18.81 8.77,-27.74 a 199.52,199.52 0 0 0 14.57,-30.48 c 9.79,25 34.6,45.41 61.79,46.69 30.22,2.53 58.25,-16.76 72.69,-42.27 a 125.67,125.67 0 0 0 11.29,-22.28 c 5.38,1.39 9.13,3.27 5.12,-6 -2.62,-15.31 3.62,-28.33 2.72,-43.75 1.39,-32.22 -15.3,-66.279955 -45.7,-79.359955 -23.47,-10.59 -53.63,-5.76 -73.26,10.68 5.47,-18.73 10.18,-41.33 24.91,-55.28 6,-5.2 15.55,-6.75 23.08,-4.75 -0.3,-0.08 -0.7,6.58 -0.67,7.19 0.1,2.54 0.31,6.22 1.69,8.42 2.91,4.64 7.8,6.19 11.45,6.68 a 16.34,16.34 0 0 0 10.31,-2.45 c 5,-3.26 8.71,-12.74 5.16,-19.6 -5.18,-9.999999 -25,-13.099998 -39.05,-11.999998 -14,1.679999 -26.35,11.139998 -37.8,18.999998 1.66,-8.91 3.44,-17.679999 5.31,-26.679995 a 2.39,2.39 0 0 0 -2.93,-1.499999 z M 93.48,47.760055 c 28.33,-1.1 56.19,20.32 61.72,48.28 0,3.07 -2.31,-2.44 -2.69,-2.94 -10.51,-20.81 -34.44,-33.44 -57.62,-30.16 -24.42,2.59 -43.63,22.13 -53,43.689975 -5,11.14998 -6.06,23.99998 -14.5,32.69998 -6.24,6.47 3.54,4.58 4,6.19 0.42,1.44 -0.19,4.59 -0.28,6.05 -1.52,25.84 9.23,54.17 33.05,66.63 20.1,10.87 47.26,8.25 64,-7.53 -2.65,7.75 -10.15,13.92 -17.19,17.37 -14.59,8.73 -32.7,8.65 -49,4.78 -13,-3.1 -24.71,-12.37 -32.44,-23.05 -8.5,-11.74 -13.26,-23.84 -15.83,-38 -1.65,-9 -1.31,-21.12 -0.89,-30.57 0,-0.51 -0.3,-1.14 1,-0.86 9.41,2.1 4.08,-1.26 1.41,-12.25 -0.31,-14.25 8.17,-26.15997 14,-38.719955 12.1,-23.62 36.9,-42.4 64.26,-41.61 z m 6.66,21 c 18.86,-1.71 36.15,8.66 46.12,25.28 3.36,6.210005 1.86,4.88 -1.62,3.06 -5.68,-3.85 -13,-9.68 -20.91,-12.15 -12.59,-3.59 -26.61,-2 -37.4,5.62 -15.67,9.999995 -23.22,27.879955 -28.52,44.929955 -0.72,3.49 -3.9,8.34 -6.41,11.39 -3.19,3.86 0,4 0.89,4.14 1.87,0.3 4.06,0.41 4,2.6 -1.11,18.86 5.86,38.14 22.43,48.44 15.87,10.25 39.13,8.73 52.47,-5.09 -3.41,7.79 -11.39,12.94 -18.58,17 -18.46,9 -42,5.33 -56.86,-8.89 -11.84,-10.93 -17.2,-26.87 -18.34,-42.61 a 88.62,88.62 0 0 1 0.22,-16.53 c 1.4,0 5,2 6.11,0.71 1.11,-1.29 -2.45,-4.65 -3.49,-10.85 -0.58,-14.26 6.42,-26.51999 13.35,-38.649955 9.87,-15.66 27.21,-28.94 46.54,-28.43 z m 134.05,11.46 c 27.44,0.3 54.68,21.409985 62.79,48.319955 a 114.56,114.56 0 0 1 -0.06,64.59 c -2,6.65 -10,9.54 -9.66,12.19 3,2 6.62,1.85 5.7,3.33 -9.08,24.1 -27.68,48.77 -52.96,56.77 -11.84,3.07 -25.05,4.07 -36.89,0.85 -15.48,-4.62 -29.33,-14.2 -37.38,-28.31 -3.32,-6.19 -9.09,-13.91 -7.35,-21.21 8.61,23.66 35.05,39.79 60,36.27 25.76,-2.6 45.7,-23.86 54.7,-47.07 1.36,-2.51 -0.27,-3 4.52,-0.81 7,4 3.71,-2.46 3.09,-9.59 -1.38,-3.87 1.62,-16.12 2.32,-39.75 0.68,-26.7 -17.1,-53.49997 -42.91,-61.999955 -12.92,-4.31 -27.28,-3 -40,1.26 -2.36,0.45 -5.82,0.94 -7.66,0.6 11.83,-9.24 26,-15.56 41.71,-15.45 z m -124.43,9.07 a 40.83,40.83 0 0 1 26.79,10 c -5.31,1.239995 -9.67,-1.36 -15.58,1.349995 -1.7,0.77999 -3.11,4.80998 -3.43,6.44998 -0.94,4.99998 5,4.26999 8.15,4.31999 6.08,0.10999 12.18,-0.14 18.26,0.19999 2.58,0.29 3.09,4.24 3.29,6.22 0.32,3.36 -0.34,6.7 -0.85,10 -1.56,10 -3.82,19.81 -6.21,29.61 -1.69,6.95 -3.79,13.91 -5.07,20.94 -2.92,16 -20.06,25.81 -35.44,24.07 -21.42,0.13 -37.24,-21.31 -37.12,-41.63 -0.17,-9.15 -0.38,-8.29 4.24,-8 0.35,0 0.69,0.13 1.09,0.16 3.33,0.25 0.35,-3.67 -0.13,-5.12 -2.68,-8 -4.29,-11.46 1.23,-26 6.38,-16.55998 20.77,-32.499955 39.69,-32.529955 a 4.41,4.41 0 0 0 1.09,-0.04 z m 120.38,8.28 c 27.23,3.239995 47.86,30.849955 46.86,57.469955 0.23,14.17 -1.13,34.63 -12.47,41.09 -5.16,3.54 -0.42,3.79 4.44,5.66 -7.57,21.24 -24.37,40.64 -47.4,44.75 a 50.67,50.67 0 0 1 -46.38,-13.87 c -5.8,-6.46 -11.81,-15.27 -13.82,-23.62 -0.38,-4.08 0.08,-5.33 1.55,-1.33 7.69,15.86 26.93,27 44.55,24.82 20.36,-1.84 35.12,-16.34 42.4,-34.37 5,2.75 7,3.5 6.24,-1.93 -3.3,-15.65 3.69,-31.3 0.58,-47.07 -1.95,-18.36 -18.79,-37.1 -35.66,-41.85998 5.18,-0.31 6.7,-5.99998 6.72,-9.999975 z m -33.43,11.999965 c -4.13,1.46 -12.41,7.59999 -15,8.99999 1.26,-4.3 6.16,-10.32998 11.17,-9.43999 0.33,0.13 6.19,-0.32 3.82,0.42 z m 13.49,3.79999 c 15.61,-1.06 30.12,8.84 36.47,22.85 a 58.93,58.93 0 0 1 4.81,27.08 c -0.35,6.53 -0.54,14.92 -4.86,20.26 -2,2.5 -9.19,6.49 -8.32,8 0.87,1.51 2.9,2.33 5.08,3.13 -6.66,16.28 -20.56,32.35 -39.27,31.9 -19.57,2.1 -38.94,-15.31 -37.94,-35 4,-21 8.66,-42.12 15.34,-62.4 5.95,-9.77 17.18,-16.23 28.69,-15.84 z"
     inkscape:connector-curvature="0"
     style="fill:#91c2d8" />
  <path
     id="path3905"
     class="cls-2"
     d="m 228.89,19.020057 a 59.3,59.3 0 0 0 -25.19,7.999998 c -5.49,3.26 -11,6.26 -15.58,10.82 -4.58,4.56 -8.13,9.78 -12,14.77 a 68.3,68.3 0 0 0 -7.71,12.23 c -2,4.3 -4,8.6 -6.09,12.85 -2.09,4.25 -3,8.26 -4.65,12.55 -2.59,6.86 -0.22,6.66 -4.1,7.7 -11.16,2.999995 -27.29,0.37 -32.57,2.699995 -2,0.85999 -4.34,5.61998 -3.13,8.55997 1.06,2.56999 4.78,2.22999 13.51,2.49999 1.44,0 17.94,-0.24 18,-0.49999 -3.05,15.22999 -5.84,30.71999 -9.51,46.53999 -1.74,10.47 -4.7,19.52 -7,31 -1.66,6.24 -2.64,10.11 -4.13,17 -1.44,5.39 -2,7.86 -3.16,13.63 -2.63,15.82 -7,31.66 -14,46.13 -5,10.32 -16.31,20.16 -28.31,17 0.09,-4 1.73,-8 0.91,-12 -0.82,-4 -4.28,-7.25 -8.12,-8.89 a 16.61,16.61 0 0 0 -10.4,-1 c -6.37,1.56 -12.17,8.94 -11.84,15.59 0.45,9.48 10.22,13 18.31,15.06 15.94,4.15 33.38,-2.52 46.63,-11.18 14.63,-9.56 22.23,-23.92 29.09,-39.57 2.8,-6.38 5.62,-12.61 8.11,-19.21 2.49,-6.6 3.69,-8.86 5.43,-14.25 1.36,-4.27 1.73,-7.34 3.16,-12.25 4.56,-22.88 9.87,-45.36 15.68,-68 1.71,-6.69 0.61,-15.58999 8.76,-17.60999 10.51,-1.84999 21.58,0.14 32.72,-1.33999 5.34,-0.71 8.68,-13.209975 3.42,-14.089975 -6,-0.89 -13,-0.05 -19,0.08 -3,0.06 -6,1.2 -9,1.35 -1.37,0.07 -6.75,1.27 -7.64,0 -0.39,-0.53 -0.38,-3.24 -0.34,-3.9 0.46,-7.27 3.15,-14.49 5.31,-21.4 4.75,-15.22 10.8,-30.68 26.38,-37.87 4.63,-1.93 11.38,-2.89 15.31,-0.76 0.28,0.15 -0.93,6.82 -1,7.55 a 14.88,14.88 0 0 0 1.19,7.66 c 2.92,5.64 11.27,7.24 17,6.16 10.93,-2.09 16.07,-12.2 10.38,-22 -3.89,-6.69 -10.29,-9.2 -17.56,-10.699999 a 59.94,59.94 0 0 0 -17.27,-0.909999 z"
     inkscape:connector-curvature="0"
     style="fill:#036291" />
</svg>
