<?xml version="1.0" encoding="UTF-8" standalone="no"?>
<svg
   xmlns:dc="http://purl.org/dc/elements/1.1/"
   xmlns:cc="http://creativecommons.org/ns#"
   xmlns:rdf="http://www.w3.org/1999/02/22-rdf-syntax-ns#"
   xmlns:svg="http://www.w3.org/2000/svg"
   xmlns="http://www.w3.org/2000/svg"
   xmlns:sodipodi="http://sodipodi.sourceforge.net/DTD/sodipodi-0.dtd"
   xmlns:inkscape="http://www.inkscape.org/namespaces/inkscape"
   xml:space="preserve"
   width="644.53589"
   height="296.87564"
   viewBox="-10 0 624.39414 296.87564"
   zoomAndPan="disable"
   id="svg2"
   version="1.1"
   inkscape:version="0.92.3 (2405546, 2018-03-11)"
   sodipodi:docname="flux-whole-logo-red-blue.svg"
   inkscape:export-filename="/home/grondo/flux-2x.png"
   inkscape:export-xdpi="90"
   inkscape:export-ydpi="90"><metadata
     id="metadata41"><rdf:RDF><cc:Work
         rdf:about=""><dc:format>image/svg+xml</dc:format><dc:type
           rdf:resource="http://purl.org/dc/dcmitype/StillImage" /><dc:title /></cc:Work></rdf:RDF></metadata><sodipodi:namedview
     pagecolor="#ffffff"
     bordercolor="#666666"
     borderopacity="1"
     objecttolerance="10"
     gridtolerance="10"
     guidetolerance="10"
     inkscape:pageopacity="0"
     inkscape:pageshadow="2"
     inkscape:window-width="1962"
     inkscape:window-height="763"
     id="namedview39"
     showgrid="false"
     inkscape:zoom="1.4142136"
     inkscape:cx="241.36686"
     inkscape:cy="150.4946"
     inkscape:window-x="2085"
     inkscape:window-y="367"
     inkscape:window-maximized="0"
     inkscape:current-layer="svg2"
     inkscape:snap-bbox="true"
     inkscape:bbox-paths="true"
     inkscape:bbox-nodes="true"
     inkscape:snap-grids="true" /><defs
     id="defs4"><marker
       id="arrow"
       viewBox="0 0 10 10"
       refX="10"
       refY="5"
       markerUnits="strokeWidth"
       orient="auto"
       markerWidth="8"
       markerHeight="6"><polyline
         points="0,0 10,5 0,10 3,5"
         style="fill:#000000;stroke-width:0px"
         id="polyline7" /></marker><style
       type="text/css"
       id="style9">
    path{
      stroke: black;
      fill: none;
      stroke-width: 2px;
    }
</style></defs><path
     style="fill:#d40000;fill-opacity:1;stroke:#590000;stroke-width:1.41421354px;stroke-opacity:1"
     d="M 167.13102,0.80837045 C 163.83163,1.6487303 164.85057,1.6192114 161.43125,16.75007 159.0042,28.470596 157.02981,40.594808 150.06668,50.411924 146.02441,60.753442 139.79609,67.925568 136.13102,77.277118 127.07777,54.303617 106.11616,36.277599 81.349774,32.933371 52.245616,27.981876 22.919508,43.997307 7.006028,67.745868 c -11.06371,15.08197 -15.69774,33.373672 -22.1875,50.593752 -0.86182,3.39618 -6.54711,7.66351 -2.90625,10.625 4.26272,-0.46488 0.90595,5.53051 1.79668,8.12156 -1.88618,25.03435 3.30364,51.57148 20.37056,70.56078 14.75947,16.44228 37.25207,25.96519 59.548249,23.67231 14.32422,-0.57314 27.971318,-7.56717 38.847003,-16.47965 -5.503976,19.18967 -7.408353,41.50741 -23.468746,55.25 -4.85773,3.79561 -12.533129,6.59309 -18.15625,3.78125 0.170037,-4.70946 2.104049,-10.12505 -1.054536,-14.78927 -8.641183,-9.2159 -24.326853,-4.60672 -28.375,5.71875 0.09771,10.80666 7.635752,13.93987 16.744796,16.31532 19.174365,5.26893 41.15811,-6.57543 56.567616,-15.42909 -1.38657,2.47838 -1.80408,14.27522 -4.66413,12.30929 -4.499916,-1.87669 -3.077179,2.73349 -3.062496,7.28125 0.6577,5.89907 -0.56806,9.92988 3.687496,10.84375 4.31395,-2.92524 6.62747,-8.52044 8.9375,-13.09375 1.76479,-3.45498 -3.387,0.1513 -1.84088,-6.72188 1.70925,-10.3925 4.30276,-21.23609 10.66502,-29.73523 5.21846,-8.73375 9.07495,-18.94335 12.57323,-28.47763 9.78731,24.985 34.59726,45.40832 61.79013,46.68474 30.22035,2.53758 58.2478,-16.76188 72.68854,-42.27168 4.77326,-7.84161 8.01509,-15.73392 11.29093,-24.27121 5.37588,1.38833 6.56375,1.82889 5.11428,-2.01961 -2.61524,-15.31117 3.62613,-30.33834 2.71875,-45.75 1.38935,-32.22391 -15.29356,-66.288782 -45.69832,-79.367472 -23.47221,-10.58239 -53.62361,-5.75404 -73.25787,10.67905 5.47273,-18.72121 10.17654,-41.322212 24.91066,-55.27999 6.01892,-5.192792 15.55101,-6.749445 23.07678,-4.750337 -1.17081,5.332944 -0.86656,9.845947 0.95619,16.03217 6.79222,5.526804 15.00588,7.189759 22.50276,3.333947 5.91967,-5.582894 9.06558,-10.688457 4.48039,-17.117957 -12.44397,-12.176301 -25.02606,-13.100853 -39.05109,-12.031232 -13.97063,1.678848 -26.34793,9.139514 -37.7945,17.001822 1.65503,-8.910708 3.43492,-17.685296 5.3125,-26.6875006 -0.49636,-1.181582 -1.69033,-1.84663695 -2.9375,-1.46874995 z M 70.787274,38.339621 c 28.33146,-1.100503 56.187166,20.324357 61.718746,48.281247 0.005,3.0716 -2.30913,-2.43835 -2.6875,-2.9375 C 119.34494,62.868278 95.377955,50.240677 72.196866,53.515064 47.777872,56.113748 28.565878,75.646118 19.162278,97.214624 c -5.57076,12.530546 -7.6514,26.393476 -16.07474,37.478726 1.32416,1.01815 8.79031,-0.8471 5.31158,7.45778 -1.52528,25.84097 9.22224,54.16857 33.044406,66.62599 20.098406,10.87317 47.259903,8.25485 63.968746,-7.53125 -2.06643,8.06198 -10.902881,11.91175 -17.187496,16.375 -14.588607,8.73229 -32.699099,9.65323 -49,5.78125 -29.831866,-8.68865 -49.918306,-39.1404 -49.324396,-69.68743 -0.0658,-7.47813 -0.11057,-14.9664 0.2306496,-22.43757 5.3833704,-0.31712 2.4762804,-8.03865 3.2916704,-11.5937 -0.30892,-14.25503 7.1666501,-27.161382 13.02345,-39.725732 12.17667,-23.6308 36.975676,-42.403375 64.341126,-41.618067 z m 6.65625,20.968747 c 18.83126,-1.67704 35.058566,9.67749 46.124996,25.3125 2.55659,5.23089 1.71785,3.88705 -1.625,3.0625 -6.13004,-4.046853 -12.8412,-10.36429 -20.90625,-12.15625 -12.597735,-3.58596 -26.616121,-2.05054 -37.406246,5.625 -15.665043,10.02042 -23.216813,27.882122 -28.521338,44.930972 -0.952707,4.64971 -6.197201,9.3068 -6.674122,13.75561 1.37002,2.50193 7.087905,-0.84883 5.16421,3.37592 -1.11019,18.8506 5.867298,39.13112 22.4375,49.4375 15.87126,10.25227 39.131333,8.72789 52.468746,-5.09375 -3.40967,7.79381 -11.391636,12.93748 -18.581923,17.00971 -18.458687,9.01176 -41.989894,5.32724 -56.855573,-8.88471 -16.064006,-14.82515 -20.307026,-37.69372 -18.374996,-58.65625 4.25178,-0.0236 2.36806,-6.67671 2.875,-9.625 -0.58909,-14.26597 6.41401,-27.524016 13.34375,-39.656252 9.86188,-15.66622 27.203725,-28.94288 46.531246,-28.4375 z M 211.4953,70.799485 c 27.4374,0.297663 54.67715,21.414533 62.79197,48.321385 6.27097,20.7822 6.05615,43.82487 -0.0625,64.59375 -2.03303,6.64847 -9.54051,8.22398 -7.66329,12.1875 4.17446,1.02801 3.66136,2.84667 2.69846,5.32438 -9.07718,24.10686 -26.67964,46.72663 -51.92354,54.76646 -11.83757,3.06207 -25.05151,4.06669 -36.89288,0.84666 -15.47688,-4.61824 -29.33363,-14.1959 -37.375,-28.3125 -3.32519,-6.18919 -9.09735,-13.90455 -7.35355,-21.20711 8.60984,23.6567 35.05048,39.78852 60.04105,36.26961 25.75372,-2.59537 45.69686,-23.86339 54.69772,-47.06863 1.36453,-2.51169 1.75098,-6.07083 4.52103,-2.80637 5.17644,2.79971 2.08398,-4.93899 2.09375,-7.59375 -2.57926,-10.68628 3.43608,-25.25993 2.31098,-39.74946 0.68507,-26.70057 -16.09791,-53.504932 -41.9027,-61.978942 -12.92323,-4.31388 -27.28421,-3.04399 -40.03328,1.25965 -2.35864,0.45139 -5.81806,0.93293 -7.65625,0.59375 11.82519,-9.23205 26.00698,-15.552533 41.70803,-15.446383 z M 87.068524,79.870868 c 9.3373,-0.21813 19.796086,3.733067 26.790126,9.987437 -5.31952,1.24287 -9.34817,-0.430328 -15.588802,1.350302 -0.79731,3.40696 -5.053164,7.646357 -2.046914,10.414103 8.526146,1.01556 16.372436,0.0756 25.032166,0.55873 3.0196,0.33659 2.74003,5.72402 3.46967,8.59568 -2.24943,19.66412 -7.83767,38.81112 -12.3125,58.1875 -2.91893,15.99904 -20.056874,25.80461 -35.437496,24.0625 -21.418896,0.13719 -37.236038,-21.31066 -37.115995,-41.62357 -1.240466,-10.66501 4.734095,-9.80131 7.843763,-9.69806 -0.746028,-8.85527 -7.119284,-18.11163 -1.415268,-29.27212 6.381719,-16.559572 20.764053,-32.503322 39.6875,-32.531252 0.366248,0.0995 0.728888,-0.0392 1.09375,-0.0312 z m 120.374996,8.28125 c 27.23556,3.24156 46.83341,30.843282 45.875,57.468752 0.2217,14.1733 -1.10964,32.85196 -11.47395,43.09099 -1.15074,1.52932 2.2112,2.58228 4.4427,2.65901 -7.57773,21.23474 -24.37375,41.63441 -47.40625,45.75 -16.68888,3.45488 -34.40902,-1.61392 -46.375,-13.875 -5.80673,-6.45606 -11.81271,-15.26635 -13.82601,-23.61539 -0.38,-4.08266 0.0885,-5.33477 1.55732,-1.33007 7.68902,15.85527 26.92744,27.00041 44.54994,24.82046 20.36001,-1.83865 35.87627,-19.15263 43.15625,-37.1875 3.89401,4.95231 8.46041,11.33845 5.47976,0.88725 -3.2948,-15.64954 3.69142,-31.30396 0.58274,-47.07475 -1.95458,-18.35707 -18.79035,-37.09126 -35.66237,-41.851706 5.18293,-0.31213 6.70108,-5.999133 6.71691,-10.043823 z m -33.42954,11.980392 c -4.1317,1.45259 -12.4088,7.59994 -14.99448,9.01777 1.26497,-4.30184 6.16771,-9.334476 11.17402,-8.43566 0.32649,0.12302 6.1911,-1.323126 3.82046,-0.58211 z m 13.49204,3.80086 c 15.60989,-1.06614 30.12179,8.83484 36.46875,22.84375 6.50426,15.14986 6.49528,33.26466 0.15625,48.46875 -0.66004,3.35108 -7.0135,7.80265 -2.65625,10.5625 -6.65053,16.2803 -21.35328,31.79295 -40.0625,31.34375 -19.56888,2.09386 -38.9431,-15.31656 -37.9375,-35 3.99255,-20.9891 8.6596,-42.12263 15.34375,-62.40625 5.94579,-9.76692 17.17695,-16.20228 28.6875,-15.8125 z"
     id="path2998"
     inkscape:connector-curvature="0"
     sodipodi:nodetypes="cccccccccccccccccccccccccccccccccccccccccccccccccccccccccccccccccccccccccccccccccccccccccccccccccccccccccccccccccccccccccccccccccccc" /><path
     style="fill:#dfe1e8;fill-opacity:1;stroke:none;stroke-width:2.11400008;stroke-linejoin:round;stroke-miterlimit:4;stroke-dasharray:none;stroke-opacity:1"
     d="m 208.01399,11.862904 c -18.61021,-0.881769 -34.07437,11.451819 -48.3125,21.75 -3.86097,2.012392 -3.86709,7.765685 -6.58364,11.013621 -6.75788,11.494319 -11.81187,23.844393 -17.88511,35.642629 -4.03907,0.665078 -0.91682,6.035694 -2.5,7.75 -11.20705,1.070128 -22.87175,0.44898 -33.843752,3.0625 -3.5111,2.198261 -3.21941,7.04353 -4.53125,10.499996 11.463052,0.0391 23.231652,-0.58237 34.531252,0.0937 -0.92181,3.85749 -4.10963,6.85951 -3.59375,11.25 -3.47384,21.42499 -8.17659,43.04025 -14.78125,63.6875 -1.37473,1.97559 -2.07008,5.01567 0.0625,6.4375 -0.1964,4.37431 -3.74896,7.792 -4.625,11.8125 2.66723,3.26034 -0.43576,8.17637 -1.96875,11.34375 -1.85371,1.34476 -2.69104,4.88415 0.125,5.59375 -4.780962,16.64377 -6.992792,34.63292 -16.281252,49.40625 -5.59279,8.94001 -17.021787,17.79752 -27.90625,13.21875 -0.878533,-4.95928 4.15023,-10.73254 -0.125,-15.34375 -7.018859,-10.04903 -26.762429,-7.20135 -28.375,5.71875 -0.517627,10.15397 10.564514,15.34026 18.6875,17.9375 19.133362,4.64 38.93387,-3.47594 52.857142,-16.52094 2.02672,-2.41811 4.3356,-3.01523 6.76786,-3.38531 4.38368,-12.15736 12.95281,-22.73252 17.52373,-35.04207 2.41996,-3.90518 2.44852,-10.16461 7.00752,-11.98918 1.13031,-4.2926 -0.36882,-9.36815 2.59375,-13.21875 4.34929,-3.57786 -0.89526,-11.79643 4.53125,-14.40625 1.71743,-6.35448 1.68686,-13.36382 3.57059,-19.83161 3.99888,-16.60778 7.0531,-33.842 13.21066,-49.79339 1.74283,-2.14509 2.45476,-5.25087 0.5,-7.125 1.03933,-5.08967 3.35326,-12.153396 9.9375,-11.718746 11.38053,-1.39637 23.08374,-0.42052 34.3125,-2.75 2.26237,-2.792961 3.92775,-10.173709 -1.46875,-10.15625 -6.47099,-0.252398 -12.88032,-1.57047 -19.25,-1.40625 -4.99289,1.063333 -11.60449,2.249224 -16.03125,1.21875 -1.11473,-1.849683 -0.96134,-3.922348 -0.125,-6.34375 4.80713,-16.975018 8.54565,-35.256811 19.90625,-49.28125 6.42247,-8.272837 18.34144,-13.298013 28.5,-10.03125 -0.77831,5.999605 -4.55414,14.12186 1.875,18.59375 6.31201,5.406699 16.56731,3.891009 23,-0.59375 7.16472,-5.332243 4.09044,-16.276417 -2.65625,-20.5 -8.09098,-6.485243 -18.69026,-6.857837 -28.65625,-6.59375 z"
     id="path3006"
     inkscape:connector-curvature="0" /><path
     style="fill:#afc6e9;fill-opacity:1;stroke:#302eff;stroke-width:2.91400003;stroke-linejoin:round;stroke-miterlimit:4;stroke-dasharray:none;stroke-opacity:1"
     d="m 266.49465,45.776755 c -19.45424,2.322355 -38.87197,5.129894 -58.31043,7.301861 -4.65999,0.814146 -3.05294,8.186582 1.3755,7.817973 7.27474,1.080932 16.24299,-0.178546 22.07439,4.961899 -9.67195,33.030956 -21.59756,65.471292 -32.24771,98.235962 -7.71539,24.45342 -17.16093,48.47998 -23.80231,73.20106 -1.50353,9.27999 5.47052,18.21921 14.79951,19.21463 18.93382,2.74596 37.2341,-7.3417 49.92526,-20.61621 5.97084,-5.87173 11.80577,-11.83642 17.13467,-18.30771 -4.07524,-2.2978 -8.4642,-6.66932 -11.69984,-0.75388 -9.53075,7.68378 -17.51772,18.0317 -28.63875,23.18907 -3.26553,1.1027 -9.76323,0.97594 -8.17121,-4.15718 5.48204,-21.33584 14.05951,-42.03409 20.55401,-63.18439 13.7263,-40.55429 27.88998,-81.068816 40.79971,-121.888122 1.36806,-3.095665 -0.2803,-5.688407 -3.7928,-5.014963 z"
     id="path3032"
     inkscape:connector-curvature="0" /><path
     style="fill:#afc6e9;fill-opacity:1;stroke:#302eff;stroke-width:2.91400003;stroke-linejoin:round;stroke-miterlimit:4;stroke-dasharray:none;stroke-opacity:1"
     d="m 336.51887,119.17786 c -18.58762,2.7005 -37.3454,4.91395 -55.84269,7.56157 -3.95197,2.05104 -1.74921,8.55897 2.84584,7.41751 5.78371,0.98297 13.92574,-0.97018 17.76512,4.13243 0.53962,9.95717 -5.09684,19.3771 -7.48633,29.01498 -7.18894,23.44321 -17.04702,46.30895 -20.96298,70.55742 -1.82891,9.49215 5.73108,18.62279 15.23141,19.31401 20.54463,2.9211 40.52835,-7.24118 54.7718,-21.31589 14.4152,-13.51607 26.91322,-29.0007 39.42492,-44.37646 -5.07218,16.6966 -12.3006,32.97917 -13.97949,50.35163 -0.50524,9.68479 9.44117,16.16201 18.37674,15.47868 12.68871,1.23588 25.00704,-3.74602 33.98809,-12.49522 7.7525,-7.40099 16.12558,-14.49738 22.30864,-23.09603 0.005,-3.30876 -4.90549,-3.72525 -7.04019,-5.684 -8.86674,8.68122 -17.39086,18.74073 -28.90548,23.57394 -2.60903,1.08008 -6.73982,-0.068 -4.82957,-3.61278 11.17516,-37.47601 25.32954,-74.2615 37.09569,-111.6049 -1.53186,-4.1782 -8.24771,-1.5827 -11.77108,-2.60883 -6.43217,0.58268 -13.82005,-1.5833 -19.75563,1.39102 -11.69327,22.665 -21.49195,46.88649 -37.91873,66.63256 -14.25126,17.02353 -28.04737,35.63569 -48.119,46.02976 -4.13156,1.54697 -9.6189,3.72799 -13.72467,1.47726 -5.00426,-4.1433 0.91422,-10.74133 1.19578,-15.6398 10.11082,-33.61499 21.89637,-66.78941 31.57391,-100.48216 0.1349,-2.23758 -2.64691,-2.28485 -4.2421,-2.0167 z"
     id="path3034"
     inkscape:connector-curvature="0" /><path
     style="fill:#afc6e9;fill-opacity:1;stroke:#302eff;stroke-width:2.91400003;stroke-linejoin:round;stroke-miterlimit:4;stroke-dasharray:none;stroke-opacity:1"
     d="m 521.36205,119.68645 c -16.44581,1.74197 -32.88279,5.31391 -48.72684,9.90209 -2.75322,3.59565 2.73602,9.66956 7.03576,6.80899 8.00646,-0.56727 17.1001,-4.41659 24.72065,-0.43398 6.49021,7.24614 6.92261,17.85967 10.60114,26.63708 2.52834,9.01703 6.24467,18.38925 7.81184,27.27954 -13.07276,14.79064 -25.7747,30.12635 -40.48347,43.37229 -3.83436,3.08607 -8.66321,6.36917 -13.60718,3.38398 -8.83579,-2.56329 -19.69593,-7.98146 -27.93396,-0.95367 -6.21574,4.83014 -5.13105,14.89781 1.33172,18.94288 12.55816,7.67784 29.12002,3.29512 39.67968,-5.87516 16.66501,-13.0591 30.71306,-28.88541 45.6109,-43.97711 6.19255,15.58886 8.8348,33.02328 17.78305,47.22659 5.94693,8.49684 17.85129,7.5777 26.91369,6.10595 14.52688,-4.53615 24.30065,-17.51049 34.36089,-28.11502 2.59359,-2.29332 6.22559,-7.55558 1.16139,-9.2455 -5.70425,-3.06541 -9.67414,4.54085 -13.63218,7.27214 -5.20527,3.52152 -9.13988,11.22162 -16.03537,11.42377 -9.00412,-1.12056 -9.95297,-12.11993 -12.83028,-18.8156 -4.84493,-14.95258 -10.10001,-30.0431 -12.97944,-45.47396 10.3152,-12.11303 19.178,-26.53134 33.35326,-34.11902 9.60276,-1.63423 18.47658,7.10808 28.29789,3.76763 9.30156,-1.43646 12.97183,-15.30347 4.61151,-20.38826 -8.75413,-6.9012 -21.46577,-4.00982 -30.72047,0.37912 -12.69297,6.88442 -22.52455,18.11428 -32.57991,28.18452 -2.22827,0.94603 -6.78244,10.85635 -7.54292,5.49958 -3.42029,-11.67234 -5.48822,-24.69081 -13.34391,-34.30074 -3.42367,-3.18879 -8.18096,-4.84401 -12.85744,-4.48813 z"
     id="path3036"
     inkscape:connector-curvature="0" /><path
     style="fill:#afc6e9;fill-opacity:1;stroke:#302eff;stroke-width:2.91400003;stroke-miterlimit:4;stroke-dasharray:none;stroke-opacity:1"
     d="m 206.17805,11.384388 c -18.68073,0.350366 -34.29757,12.793415 -48.5664,23.332032 -8.66924,15.816441 -14.71977,32.510503 -23.66686,48.089843 -1.43877,3.814605 -1.43877,3.814605 -4.10267,4.703125 -10.4438,1.268818 -21.57899,0.182158 -31.572272,3.699219 -3.26648,2.706016 -3.53011,7.412417 -4.98242,11.111323 11.253432,0.30498 24.063742,-0.59924 34.357422,0.45117 -5.2923,15.43339 -6.84433,31.71899 -10.5142,47.54038 -1.73855,10.46434 -4.69838,19.52124 -6.96911,31.00455 -1.65552,6.24234 -2.63899,10.11356 -4.12997,17.02929 -1.43651,5.39736 -2.04883,7.86128 -3.15625,13.63086 -2.62833,15.82565 -6.985312,31.66222 -13.998052,46.13477 -5.31996,9.72713 -16.370916,19.86255 -28.273436,15.98437 0.740808,-5.97694 3.286371,-13.97852 -3.132813,-17.93164 -8.272023,-6.57687 -22.868655,-3.53256 -26.208984,6.88281 -1.217775,7.64606 4.367117,14.17626 11.160189,16.812 14.110937,7.93486 31.91894,4.8645 45.574184,-2.51512 7.88283,-3.95803 14.565292,-9.06677 21.736332,-14.51177 6.01643,-9.97156 11.15348,-20.88669 16.43178,-31.30655 2.72111,-5.30421 4.71298,-10.24449 7.08469,-17.6427 2.46576,-6.56234 3.69446,-8.85981 5.4308,-14.25187 1.36851,-4.26587 1.73727,-7.33863 3.16015,-12.25195 4.56179,-22.87663 9.06577,-45.90308 16.67974,-67.96801 2.30962,-6.17196 -0.12005,-16.36117 7.76167,-18.61012 12.1192,-2.130666 24.90093,-0.52942 36.76172,-3.990226 2.85556,-2.650366 3.52122,-10.021877 -1.61914,-10.435551 -11.53141,-1.738414 -23.2974,-0.695532 -34.85352,-0.185547 -0.82482,-7.980524 3.48063,-15.92538 5.13867,-23.65625 4.75572,-15.221993 10.80724,-32.681601 26.38086,-39.869141 4.63331,-1.936338 11.38629,-2.891861 15.31641,-0.759765 -0.92281,6.463829 -3.03916,15.348971 4.16211,19.136718 8.58049,5.241455 22.81652,1.88894 26.06054,-8.154296 1.4691,-11.875023 -10.96067,-19.544372 -21.34765,-20.751954 -5.33994,-0.625157 -10.73298,-0.69648 -16.10352,-0.75 z"
     id="path3905"
     inkscape:connector-curvature="0"
     sodipodi:nodetypes="cccccccccccccccccccccccccccccccccc" /></svg>