<svg id="svg2" xmlns="http://www.w3.org/2000/svg" viewBox="0 0 308.03 297.27"><defs><style>.cls-1{fill:#91c2d8;}</style></defs><title>Flux-logo-3</title><path id="path2998" class="cls-1" d="M189.86-.86c-3.31.84-2.28.81-5.72,16-2.42,10.69-5.29,20.56-10.4,30.31-5.23,10-10.12,20-14.88,30.12-9.06-23-30-41-54.78-44.34C75,26.32,45.65,41.33,29.73,65.08,18.67,80.16,14,96.45,7.54,113.67a72.08,72.08,0,0,1-4.68,6.55c-1.86,2.16-4.7,5.43,2.6,6.35,1.3.36,1.31.67,1.17,1.82a149.49,149.49,0,0,0-.56,15.7,119.78,119.78,0,0,0,.67,12.7,97.77,97.77,0,0,0,5.79,24.55A76.08,76.08,0,0,0,26.81,205c14.76,16.44,37.25,27,59.54,24.67,14.33-.57,28-7.56,38.85-16.48-5.5,19.19-7.41,41.51-23.47,55.25-4.85,3.8-12.53,6.59-18.15,3.79-.77-.39.41-5.66.47-6.28.32-3,.31-6.17-1.09-8.94a14.53,14.53,0,0,0-6.12-5.83c-3.25-1.81-7.1-2.89-10.71-2s-6.55,3.62-8.64,6.71c-2.66,3.92-4.24,9-2.45,13.41,1.58,3.87,5.41,6.35,9.26,8,20.72,8.89,41.83-1.64,59.83-11.91a1.13,1.13,0,0,1,1.69,1.16c-.57,4.1-1.58,10.44-2.5,10.15-6.89-1.37-7.83-4.34-5.59,5.94,1.76,8.81,2.92,12,4.26,12.35,1.92.44,13.33-13.29,13.33-13.29,2.8-3.95-1.28-2.87-5.16-3.67-.68-.14,0-1.76.25-3.35.81-4.81,3.5-18.82,8.77-27.75a199.87,199.87,0,0,0,14.57-30.47c9.79,25,34.6,45.4,61.79,46.68,30.23,2.54,58.25-17.76,72.69-43.27a125.58,125.58,0,0,0,11.29-22.27c5.38,1.39,9.14,3.26,5.12-6-2.62-15.31,3.62-28.34,2.72-43.75,1.39-32.23-15.3-65.29-45.7-78.37C238.19,58.85,208,63.68,188.4,80.11c5.47-18.72,10.18-41.32,24.91-55.28,6-5.19,15.55-6.75,23.08-4.75-.3-.08-.7,6.58-.67,7.19.1,2.54.31,6.22,1.69,8.43,2.91,4.63,7.8,6.19,11.45,6.68a16.35,16.35,0,0,0,10.31-2.46c5-3.26,8.71-12.74,5.16-19.59-5.17-10-25-13.1-39-12-14,1.67-26.35,11.14-37.8,19,1.66-8.91,3.44-17.69,5.31-26.69A2.39,2.39,0,0,0,189.86-.86ZM93.51,36.67C121.84,35.57,149.7,57,155.23,85c0,3.08-2.31-2.43-2.69-2.93C142.07,61.2,118.1,48.57,94.92,51.85c-24.42,2.6-43.63,21.13-53,42.7-5,11.14-6.06,24-14.5,32.7-6.23,6.46,3.54,4.57,4,6.18.42,1.44-.19,4.59-.27,6-1.53,25.85,9.22,55.17,33,67.63,20.1,10.87,47.26,8.26,64-7.53C125.49,207.33,118,213.5,111,217c-14.59,8.74-32.7,8.66-49,4.79-13-3.1-24.71-13.38-32.44-24.05-8.5-11.74-13.26-23.85-15.83-38-1.65-9-1.31-21.11-.89-30.57,0-.51-.3-1.13,1-.85,9.41,2.09,4.08-1.27,1.41-12.25-.31-14.26,8.17-26.16,14-38.73C41.35,53.66,66.15,35.89,93.51,36.67Zm6.66,21C119,56,136.32,66.33,146.29,83c3.37,6.22,1.87,4.88-1.62,3.07-5.68-3.85-13-9.69-20.91-12.16-12.59-3.59-26.61-2-37.4,5.63-15.67,10-23.22,27.88-28.52,44.93-.72,3.48-3.9,8.33-6.41,11.38-3.19,3.87,0,4,.89,4.14,1.87.3,4.06.42,4,2.61C55.22,161.4,62.19,180.68,78.76,191c15.87,10.25,39.13,8.72,52.47-5.1-3.41,7.8-11.39,12.94-18.58,17-18.46,9-42,5.33-56.86-8.88C44,183.09,38.59,166.14,37.45,150.4a88.62,88.62,0,0,1,.22-16.53c1.4,0,5,2,6.11.71s-2.45-4.64-3.49-10.84c-.58-14.27,6.42-25.53,13.35-37.66C63.5,70.41,80.84,57.14,100.17,57.64ZM234.22,69.13c27.44.3,54.68,20.42,62.79,47.32a114.6,114.6,0,0,1-.06,64.6c-2,6.65-10,9.53-9.66,12.19,3,2,6.62,1.84,5.7,3.32-9.08,24.11-27.68,49.73-52.93,57.77-11.84,3.06-25.05,4.06-36.89.84-15.48-4.62-29.33-14.19-37.38-28.31-3.32-6.19-9.09-13.9-7.35-21.21,8.61,23.66,35.05,39.79,60,36.27,25.76-2.59,45.7-23.86,54.7-47.07,1.36-2.51-.27-3,4.52-.8,7,4,3.71-2.47,3.09-9.6-1.38-3.87,1.62-16.12,2.32-39.75.68-26.7-17.1-53.5-42.91-62-12.92-4.32-27.28-3-40,1.26-2.36.45-5.82.93-7.66.59,11.83-9.23,26-15.55,41.71-15.45ZM109.79,78.2a40.93,40.93,0,0,1,26.79,10c-5.31,1.24-9.67-1.36-15.58,1.35-1.7.78-3.11,4.81-3.42,6.45-1,5,5,4.27,8.14,4.33,6.08.1,12.18-.14,18.26.19,2.58.29,3.1,4.25,3.29,6.23.32,3.36-.34,6.69-.85,10-1.56,10-3.82,19.81-6.21,29.61-1.69,7-3.79,13.91-5.07,21-2.92,16-20.06,25.8-35.44,24.06-21.42.14-37.24-21.31-37.12-41.62-.17-9.16-.38-8.3,4.24-8,.35,0,.69.14,1.09.17,3.33.25.35-3.68-.13-5.13-2.68-8-4.29-11.46,1.23-26C75.4,94.21,89.78,78.26,108.7,78.24A4.41,4.41,0,0,0,109.79,78.2Zm120.38,8.29C257.41,89.73,278,117.33,277,144c.23,14.18-1.13,34.63-12.47,41.1-5.16,3.53-.41,3.78,4.44,5.65-7.57,21.24-24.37,40.64-47.4,44.75a50.67,50.67,0,0,1-46.38-13.87c-5.8-6.46-11.81-15.27-13.82-23.62-.38-4.08.08-5.33,1.55-1.33,7.69,15.86,26.93,27,44.55,24.82,20.36-1.83,35.12-16.33,42.4-34.37,5,2.75,7,3.5,6.24-1.93-3.3-15.65,3.69-31.3.58-47.07-2-18.36-18.79-37.09-35.66-41.85,5.18-.31,6.7-6,6.72-10Zm-33.43,12c-4.13,1.45-12.41,7.6-15,9,1.26-4.3,6.16-10.33,11.17-9.43.33.12,6.19-.33,3.82.42Zm13.49,3.8c15.61-1.07,30.12,8.83,36.47,22.84a59,59,0,0,1,4.81,27.08c-.35,6.54-.54,14.93-4.86,20.26-2,2.5-9.19,6.49-8.31,8s2.89,2.34,5.07,3.13c-6.66,16.28-20.56,32.35-39.27,31.91-19.57,2.09-38.94-15.32-37.94-35,4-21,8.66-42.13,15.34-62.41C187.49,108.31,198.72,101.88,210.23,102.27Z"/><path id="path3905" class="cls-1" d="M228.92,7.93a59.44,59.44,0,0,0-25.19,8c-5.49,3.26-11,6.26-15.58,10.83s-8.13,9.78-12,14.77a68.57,68.57,0,0,0-7.71,12.22c-2,4.3-4,8.6-6.09,12.85s-3,8.26-4.65,12.55c-2.59,6.86-.22,6.66-4.1,7.7-11.16,3-27.29.37-32.57,2.7-2,.86-4.34,5.63-3.13,8.56,1.06,2.57,4.79,2.23,13.51,2.5,1.44.05,17.94-.24,18-.5-3.05,15.23-5.84,30.72-9.51,46.54-1.74,10.47-4.7,19.53-7,31-1.66,6.24-2.64,10.11-4.13,17-1.44,5.4-2,7.86-3.16,13.63-2.63,15.83-7,31.66-14,46.13-5,10.32-16.31,20.16-28.31,17,.09-4,1.73-8,.91-12-.85-4.09-4.28-7.26-8.11-8.89a16.72,16.72,0,0,0-10.41-1c-6.37,1.56-12.17,8.94-11.84,15.6.45,9.47,10.22,12.95,18.31,15.06,15.94,4.15,33.39-2.53,46.63-11.19,14.63-9.56,22.23-23.91,29.09-39.57,2.8-6.38,5.62-12.61,8.11-19.2s3.69-8.86,5.43-14.26c1.36-4.26,1.73-7.33,3.16-12.25,4.56-22.87,9.87-45.36,15.68-68,1.71-6.69.61-15.59,8.76-17.61,10.51-1.84,21.58.14,32.72-1.34,5.34-.71,8.68-13.21,3.42-14.08-6-.9-13,0-19,.07-3,.07-6,1.21-9,1.36-1.37.06-6.75,1.26-7.64,0-.39-.54-.38-3.25-.34-3.91.46-7.27,3.15-14.49,5.31-21.39,4.75-15.23,10.8-30.69,26.38-37.87,4.63-1.94,11.38-2.89,15.31-.76.28.15-.93,6.81-1,7.54a14.91,14.91,0,0,0,1.19,7.67c2.92,5.63,11.27,7.23,17,6.15,10.93-2.08,16.07-12.2,10.38-22-3.89-6.69-10.29-9.19-17.56-10.69A60,60,0,0,0,228.92,7.93Z"/></svg>